HIERARCHY
ROOT Hips
{
	OFFSET 0.000000 0.000000 0.000000 
	CHANNELS 6 Xposition Yposition Zposition Zrotation Yrotation Xrotation
	JOINT LeftUpLeg
	{
		OFFSET 1.363060 -1.794630 0.839290 
		CHANNELS 3 Zrotation Yrotation Xrotation
		JOINT LeftLeg
		{
			OFFSET 2.448110 -6.726130 0.000000 
			CHANNELS 3 Zrotation Yrotation Xrotation
			JOINT LeftFoot
			{
				OFFSET 2.562200 -7.039590 0.000000 
				CHANNELS 3 Zrotation Yrotation Xrotation
				JOINT LeftToeBase
				{
					OFFSET 0.157640 -0.433110 2.322550 
					CHANNELS 3 Zrotation Yrotation Xrotation
					End Site
					{
						OFFSET 0.000000 0.000000 0.000000 
					}
				}
			}
		}
	}
	JOINT RightUpLeg
	{
		OFFSET -1.305520 -1.794630 0.839290 
		CHANNELS 3 Zrotation Yrotation Xrotation
		JOINT RightLeg
		{
			OFFSET -2.542530 -6.985550 0.000000 
			CHANNELS 3 Zrotation Yrotation Xrotation
			JOINT RightFoot
			{
				OFFSET -2.568260 -7.056230 0.000000 
				CHANNELS 3 Zrotation Yrotation Xrotation
				JOINT RightToeBase
				{
					OFFSET -0.164730 -0.452590 2.363150 
					CHANNELS 3 Zrotation Yrotation Xrotation
					End Site
					{
						OFFSET 0.000000 0.000000 0.000000 
					}
				}
			}
		}
	}
	JOINT Spine
	{
		OFFSET 0.028270 2.035590 -0.193380 
		CHANNELS 3 Zrotation Yrotation Xrotation
		JOINT Spine1
		{
			OFFSET 0.056720 2.048850 -0.042750 
			CHANNELS 3 Zrotation Yrotation Xrotation
			JOINT Neck1
			{
				OFFSET -0.054170 1.746240 0.172020 
				CHANNELS 3 Zrotation Yrotation Xrotation
				JOINT Head
				{
					OFFSET 0.104070 1.761360 -0.123970 
					CHANNELS 3 Zrotation Yrotation Xrotation
					End Site
					{
						OFFSET 0.000000 0.000000 0.000000 
					}
				}
			}
			JOINT LeftArm
			{
				OFFSET 3.362410 1.200890 -0.311210 
				CHANNELS 3 Zrotation Yrotation Xrotation
				JOINT LeftForeArm
				{
					OFFSET 4.983000 -0.000000 -0.000000 
					CHANNELS 3 Zrotation Yrotation Xrotation
					JOINT LeftHand
					{
						OFFSET 3.483560 -0.000000 -0.000000 
						CHANNELS 3 Zrotation Yrotation Xrotation
						JOINT LeftHandIndex1
						{
							OFFSET 0.715260 -0.000000 -0.000000 
							CHANNELS 3 Zrotation Yrotation Xrotation
							End Site
							{
								OFFSET 0.000000 0.000000 0.000000 
							}
						}
					}
				}
			}
			JOINT RightArm
			{
				OFFSET -3.136600 1.374050 -0.404650 
				CHANNELS 3 Zrotation Yrotation Xrotation
				JOINT RightForeArm
				{
					OFFSET -5.241900 -0.000000 -0.000000 
					CHANNELS 3 Zrotation Yrotation Xrotation
					JOINT RightHand
					{
						OFFSET -3.444170 -0.000000 -0.000000 
						CHANNELS 3 Zrotation Yrotation Xrotation
						JOINT RightHandIndex1
						{
							OFFSET -0.622530 -0.000000 -0.000000 
							CHANNELS 3 Zrotation Yrotation Xrotation
							End Site
							{
								OFFSET 0.000000 0.000000 0.000000 
							}
						}
					}
				}
			}
		}
	}
}
MOTION
Frames: 15
Frame Time: 0.041667
7.229171 17.813693 37.578084 -179.781538 1.715990 -168.334637 -23.014003 -13.670035 -6.714801 0.354259 4.750768 14.548335 0.467925 -1.929024 -12.052242 8.950600 -16.775900 -55.919300 31.273968 5.828759 -2.282939 0.148601 -1.745226 9.530120 -0.622433 3.256688 -13.165922 -1.461800 7.641400 -21.630100 0.334306 3.323925 -4.583146 1.449535 1.492883 4.720452 9.508156 -7.005793 30.636977 3.080300 -4.047600 12.503100 -88.400217 -8.262647 14.500642 5.792829 -14.128346 -1.763074 0.106618 1.334607 20.573606 -7.125000 0.000000 0.000000 86.763336 -1.954847 3.817145 -5.553904 24.975419 -3.836271 -0.549540 -2.604108 20.762875 7.125000 0.000000 0.000000 
7.229386 17.810582 37.584630 -179.802627 1.697131 -168.182944 -22.956562 -13.736765 -6.927265 0.348454 4.767432 14.569325 0.570980 -2.435180 -13.128069 9.380700 -17.046500 -57.397600 31.237142 5.596774 -2.662409 0.142236 -1.772370 9.555763 -0.588235 3.149432 -12.875657 -1.695800 8.201500 -23.327700 0.334048 3.344338 -4.603887 1.516067 1.508818 4.726158 9.664831 -7.078188 30.517215 3.159300 -4.086400 12.417600 -88.864575 -5.580261 24.363215 4.657557 -13.082601 -1.778077 0.521058 1.313056 29.760466 -7.125000 0.000000 0.000000 86.774508 -1.985830 3.779037 -5.667841 25.087651 -3.859263 -0.494833 -2.620145 20.928094 7.125000 0.000000 0.000000 
7.228098 17.810582 37.589458 -179.837634 1.599285 -168.142260 -22.995111 -13.888409 -7.010823 0.328555 4.807963 14.660220 0.621885 -1.768158 -13.894815 9.992000 -17.405300 -59.461600 31.198198 5.380530 -2.814003 0.141049 -1.784406 9.576001 -0.570545 2.983609 -12.726961 -1.921000 8.699500 -24.859900 0.328199 3.331977 -4.609193 1.513576 1.503995 4.702738 9.919042 -7.176089 30.424025 3.301800 -4.141900 12.372000 -89.078780 -5.313427 25.656687 4.646697 -12.926688 -1.299685 0.519893 1.059857 31.145988 -7.125000 0.000000 0.000000 86.829428 -1.940968 3.719212 -5.640202 25.050858 -3.838527 -0.490836 -2.622108 20.799895 7.125000 0.000000 0.000000 
7.227132 17.811333 37.595682 -179.919482 1.482909 -168.173116 -23.155699 -14.381083 -7.065733 0.332602 4.971705 15.089188 0.686952 -0.833515 -14.938017 10.607800 -17.737800 -61.501200 31.108250 5.082647 -2.884170 0.142361 -1.776837 9.560769 -0.550457 2.774539 -12.551667 -2.204200 9.279000 -26.672100 0.313207 3.337835 -4.602220 1.488207 1.506231 4.695648 10.067581 -7.296237 30.398621 3.371800 -4.195800 12.377100 -89.220776 -5.299493 26.131563 4.663235 -12.960728 -1.313331 0.529978 1.063307 31.184425 -7.125000 0.000000 0.000000 86.948947 -1.854478 3.402450 -5.563427 24.939441 -3.803832 -0.510945 -2.618064 20.832199 7.125000 0.000000 0.000000 
7.225738 17.811762 37.602012 -179.982447 1.430901 -168.209417 -23.124208 -14.052356 -6.956076 0.282600 4.847340 14.744472 0.821467 -1.139332 -16.188310 11.069200 -17.968800 -63.006200 31.018853 4.852894 -2.979017 0.136880 -1.785796 9.583697 -0.532145 2.688044 -12.384863 -2.497200 9.832800 -28.436800 0.296809 3.371777 -4.603613 1.454074 1.517197 4.670686 9.873672 -7.345348 30.568293 3.227300 -4.185600 12.513500 -89.337475 -5.134300 27.452548 4.953256 -13.356232 -1.330914 0.498288 1.055831 30.308346 -7.125000 0.000000 0.000000 87.067888 -1.844847 2.903995 -5.587303 24.914581 -3.810372 -0.557473 -2.596352 21.396628 7.125000 0.000000 0.000000 
7.220158 17.812728 37.603407 -179.974295 1.483384 -168.258888 -23.152434 -14.159009 -6.728269 0.279002 4.835785 14.724883 0.833401 -1.122600 -16.307411 11.051300 -17.960100 -62.948200 31.020535 4.340727 -3.207938 0.126532 -1.795610 9.601132 -0.487929 2.646367 -11.960922 -2.818500 10.395300 -30.266500 0.279102 3.441853 -4.601171 1.352471 1.546566 4.699640 9.457058 -7.302878 30.854574 2.948500 -4.112300 12.729400 -89.452777 -5.011633 27.225177 4.784815 -13.160586 -1.366529 0.512973 1.097620 31.826471 -7.125000 0.000000 0.000000 87.133839 -1.885751 2.673797 -5.639882 24.956349 -3.820515 -0.508047 -2.623482 21.518639 7.125000 0.000000 0.000000 
7.212647 17.812835 37.599866 -179.858188 1.620112 -168.271661 -23.076878 -14.228540 -6.517423 0.264953 4.799110 14.634316 0.843400 -0.988737 -16.451600 10.998900 -17.934500 -62.777900 31.111138 4.302937 -3.239522 0.118453 -1.814687 9.646940 -0.490168 2.854876 -11.974579 -2.872500 10.485800 -30.564500 0.274790 3.523491 -4.594634 1.276271 1.585995 4.772842 9.227107 -7.295179 31.024158 2.797600 -4.086800 12.839900 -89.591838 -4.840657 27.512622 4.755773 -13.143997 -1.393090 0.497796 1.126362 32.721201 -7.125000 0.000000 0.000000 87.122458 -1.958815 2.720339 -5.630974 24.948697 -3.793203 -0.452993 -2.638147 20.984851 7.125000 0.000000 0.000000 
7.207604 17.813693 37.600832 -179.778999 1.706537 -168.209751 -22.989654 -14.180729 -6.480611 0.242833 4.718955 14.412578 0.830941 -0.933747 -16.348564 10.913700 -17.892600 -62.501200 31.181452 4.351885 -3.360334 0.109014 -1.852492 9.728829 -0.486744 2.963416 -11.940696 -2.876000 10.491600 -30.583800 0.293473 3.520722 -4.601054 1.331682 1.587749 4.817699 9.243299 -7.289071 31.092004 2.821300 -4.098300 12.877000 -89.785873 -4.745661 27.242589 4.702878 -13.080727 -1.400942 0.505303 1.130313 33.670905 -7.125000 0.000000 0.000000 86.987962 -2.048386 3.139635 -5.603009 24.900715 -3.725709 -0.638439 -2.470091 19.923468 7.125000 0.000000 0.000000 
7.205136 17.815303 37.609738 -179.892998 1.719423 -168.181486 -23.118812 -14.164337 -6.447061 0.224775 4.640596 14.197778 0.810342 -0.946023 -16.140151 10.814400 -17.843100 -62.177400 31.019487 4.395813 -3.488868 0.094946 -1.892307 9.825938 -0.485161 2.999570 -11.929781 -2.790500 10.348000 -30.111200 0.293901 3.488940 -4.604130 1.425529 1.568801 4.819086 9.344336 -7.280243 31.101820 2.895600 -4.107100 12.894900 -89.902429 -4.762926 26.769380 4.651207 -13.006980 -1.400010 0.520419 1.125425 34.528656 -7.125000 0.000000 0.000000 86.824595 -2.040309 3.489928 -5.564815 25.001428 -3.873900 -0.248608 -2.788545 18.542846 7.125000 0.000000 0.000000 
7.202990 17.815839 37.618965 179.955176 1.749009 -168.183289 -23.303236 -14.129831 -6.383991 0.213249 4.575088 14.024035 0.803274 -1.093986 -16.009019 10.732800 -17.801800 -61.910600 30.814493 4.477429 -3.570630 0.085229 -1.917374 9.886145 -0.486197 2.990747 -11.944066 -2.701100 10.194700 -29.609500 0.271455 3.507578 -4.598091 1.436503 1.573010 4.809002 9.444134 -7.311785 31.061855 2.948000 -4.119600 12.885600 -89.885656 -4.824157 26.755697 4.667975 -13.026001 -1.404206 0.525182 1.124405 34.734463 -7.125000 0.000000 0.000000 86.806966 -2.023821 3.690295 -5.606657 24.960548 -3.723287 -0.294117 -2.661275 18.434604 7.125000 0.000000 0.000000 
7.200630 17.816483 37.623901 179.940407 1.780509 -168.144607 -23.317525 -14.107826 -6.382963 0.207855 4.538936 13.924813 0.807167 -1.266707 -15.981054 10.668400 -17.768900 -61.699800 30.801394 4.620453 -3.639964 0.084010 -1.939589 9.928852 -0.490376 2.945569 -11.990425 -2.699000 10.191100 -29.597900 0.263697 3.519275 -4.592882 1.421834 1.575709 4.847629 9.511958 -7.309423 31.019646 2.985000 -4.119200 12.852200 -89.817934 -4.888790 27.039745 4.724407 -13.098197 -1.407199 0.524103 1.122398 34.287267 -7.125000 0.000000 0.000000 86.769645 -1.943600 3.505293 -5.459959 24.838115 -3.767987 -0.170458 -2.770394 18.625631 7.125000 0.000000 0.000000 
7.198591 17.817556 37.627013 179.958694 1.776597 -168.105867 -23.287338 -14.093651 -6.381907 0.204362 4.509494 13.844444 0.810081 -1.432066 -15.947094 10.592800 -17.730000 -61.451900 30.838019 4.716778 -3.692235 0.085060 -1.959972 9.969367 -0.494735 2.871518 -12.039578 -2.748800 10.276800 -29.878000 0.269330 3.512570 -4.590027 1.436737 1.574033 4.878337 9.628844 -7.373675 30.919353 3.059800 -4.168300 12.762600 -89.733832 -4.942986 27.377193 4.775190 -13.162867 -1.399201 0.520451 1.114885 33.729635 -7.125000 0.000000 0.000000 86.761201 -1.928470 3.432302 -5.312097 24.620871 -3.661713 -0.385151 -2.634794 18.906043 7.125000 0.000000 0.000000 
7.204278 17.822706 37.650619 179.877580 1.361363 -168.152855 -23.283687 -14.201796 -6.531730 0.228567 4.550442 13.944095 0.799706 -1.902442 -15.687429 10.509500 -17.686500 -61.177900 30.824902 4.685834 -3.650347 0.104658 -1.940344 9.929372 -0.508359 2.433640 -12.194173 -2.778400 10.327400 -30.043700 0.319425 3.283852 -4.631716 1.500850 1.449015 4.745052 9.010795 -7.152006 31.528892 2.661700 -3.971800 13.311200 -89.635425 -5.021320 27.583562 4.780846 -13.174120 -1.393793 0.521895 1.112617 33.399430 -7.125000 0.000000 0.000000 86.794440 -1.728246 3.035543 -5.112057 24.317593 -3.588708 -0.476744 -2.581088 19.433413 7.125000 0.000000 0.000000 
7.203741 17.823672 37.657915 179.906904 1.246339 -168.166936 -23.223760 -14.144260 -6.473539 0.215932 4.473680 13.735956 0.786460 -2.083241 -15.492749 10.429600 -17.644400 -60.914700 30.866252 4.617233 -3.670820 0.105886 -1.945492 9.941497 -0.511158 2.407928 -12.224016 -2.746000 10.272100 -29.862500 0.330152 3.274189 -4.626703 1.490425 1.443693 4.757100 9.066540 -7.236217 31.419435 2.672700 -3.999500 13.242800 -89.491530 -5.072105 27.685503 4.772037 -13.166488 -1.391184 0.519689 1.114694 33.280131 -7.125000 0.000000 0.000000 86.911954 -1.571089 2.427647 -4.929032 24.058553 -3.531513 -0.374029 -2.645828 19.951000 7.125000 0.000000 0.000000 
7.201595 17.823136 37.659954 179.947004 1.297877 -168.170538 -23.170596 -14.006921 -6.392370 0.198909 4.388307 13.507193 0.768756 -2.139464 -15.293922 10.362300 -17.608600 -60.692600 30.890860 4.623088 -3.696562 0.098631 -1.963074 9.985098 -0.509182 2.518862 -12.197938 -2.668400 10.137800 -29.424100 0.323745 3.339764 -4.613362 1.426584 1.468577 4.835136 8.946964 -7.202736 31.497409 2.574800 -3.952600 13.300400 -89.304405 -5.130315 27.679541 4.749741 -13.139321 -1.385168 0.520726 1.114483 33.317835 -7.125000 0.000000 0.000000 87.058307 -1.408826 1.797911 -4.714497 23.811929 -3.539162 -0.356670 -2.726306 20.039446 7.125000 0.000000 0.000000 
